<svg width="124" height="62" viewBox="0 0 124 62" fill="none" xmlns="http://www.w3.org/2000/svg">
<path fill-rule="evenodd" clip-rule="evenodd" d="M31.729 0L63.458 31.729L61.2911 33.896L31.729 4.33393L2.16697 33.896L0 31.729L31.729 0Z" fill="white"/>
<path d="M32.0457 40.6578V44.7541H37.2146V46.8686H32.0457V51.0466H38.6038V53.2429H29.2876V38.4717H38.6038V40.6578H32.0457Z" fill="#F6F5F5"/>
<path d="M46.8957 44.8051C46.8276 44.9141 46.7561 44.9924 46.6812 45.0401C46.6063 45.0809 46.5109 45.1014 46.3951 45.1014C46.2726 45.1014 46.1398 45.0673 45.9968 44.9992C45.8606 44.9311 45.7005 44.8562 45.5166 44.7745C45.3328 44.686 45.1217 44.6076 44.8833 44.5395C44.6518 44.4714 44.3759 44.4374 44.0559 44.4374C43.5587 44.4374 43.1672 44.5429 42.8811 44.7541C42.6019 44.9652 42.4623 45.241 42.4623 45.5815C42.4623 45.8062 42.5338 45.9969 42.6768 46.1535C42.8266 46.3034 43.0207 46.4362 43.2591 46.5519C43.5043 46.6677 43.7801 46.7733 44.0865 46.8686C44.393 46.9571 44.7028 47.0559 45.0161 47.1648C45.3362 47.2738 45.6494 47.3998 45.9559 47.5428C46.2623 47.679 46.5348 47.8561 46.7731 48.074C47.0183 48.2851 47.2124 48.5405 47.3554 48.8401C47.5052 49.1398 47.5801 49.5007 47.5801 49.9229C47.5801 50.4269 47.4882 50.8934 47.3043 51.3224C47.1272 51.7446 46.8616 52.1124 46.5075 52.4257C46.1534 52.7321 45.7141 52.9739 45.1898 53.1509C44.6722 53.3212 44.0729 53.4063 43.3919 53.4063C43.0309 53.4063 42.6768 53.3723 42.3295 53.3042C41.989 53.2429 41.6587 53.1543 41.3386 53.0386C41.0254 52.9228 40.7325 52.7866 40.4601 52.63C40.1945 52.4733 39.9596 52.3031 39.7553 52.1192L40.3375 51.159C40.4125 51.0432 40.501 50.9547 40.6031 50.8934C40.7053 50.8321 40.8347 50.8014 40.9913 50.8014C41.148 50.8014 41.2944 50.8457 41.4306 50.9342C41.5736 51.0228 41.737 51.1181 41.9209 51.2203C42.1048 51.3224 42.3193 51.4178 42.5645 51.5063C42.8164 51.5948 43.1331 51.6391 43.5145 51.6391C43.8141 51.6391 44.0695 51.605 44.2806 51.5369C44.4985 51.462 44.6756 51.3667 44.8118 51.2509C44.9548 51.1351 45.057 51.0023 45.1182 50.8525C45.1864 50.6959 45.2204 50.5358 45.2204 50.3724C45.2204 50.1272 45.1455 49.9263 44.9957 49.7697C44.8527 49.6131 44.6586 49.4769 44.4134 49.3611C44.175 49.2453 43.8992 49.1432 43.586 49.0546C43.2795 48.9593 42.9628 48.8571 42.636 48.7482C42.3159 48.6392 41.9992 48.5132 41.686 48.3702C41.3795 48.2204 41.1037 48.0331 40.8585 47.8084C40.6202 47.5837 40.4261 47.3078 40.2763 46.981C40.1332 46.6541 40.0617 46.2591 40.0617 45.796C40.0617 45.367 40.1469 44.9584 40.3171 44.5702C40.4874 44.182 40.7359 43.8449 41.0628 43.5589C41.3965 43.266 41.8085 43.0345 42.2989 42.8642C42.796 42.6872 43.368 42.5986 44.015 42.5986C44.7369 42.5986 45.3941 42.7178 45.9865 42.9562C46.579 43.1945 47.0728 43.5078 47.4677 43.896L46.8957 44.8051Z" fill="#F6F5F5"/>
<path d="M52.9728 53.4063C52.0602 53.4063 51.3588 53.1509 50.8684 52.6402C50.3849 52.1226 50.1432 51.4109 50.1432 50.5052V44.6519H49.0706C48.9344 44.6519 48.8186 44.6076 48.7232 44.5191C48.6279 44.4306 48.5802 44.2978 48.5802 44.1207V43.1196L50.2657 42.8438L50.7969 39.9836C50.831 39.8474 50.8957 39.7418 50.991 39.6669C51.0864 39.592 51.2089 39.5545 51.3588 39.5545H52.6663V42.854H55.4653V44.6519H52.6663V50.3315C52.6663 50.6584 52.7446 50.9138 52.9013 51.0977C53.0647 51.2816 53.286 51.3735 53.5652 51.3735C53.7219 51.3735 53.8513 51.3565 53.9534 51.3224C54.0624 51.2816 54.1543 51.2407 54.2292 51.1998C54.311 51.159 54.3825 51.1215 54.4437 51.0875C54.505 51.0466 54.5663 51.0262 54.6276 51.0262C54.7025 51.0262 54.7638 51.0466 54.8115 51.0875C54.8592 51.1215 54.9102 51.176 54.9647 51.2509L55.7206 52.4767C55.3529 52.7832 54.9307 53.0147 54.454 53.1714C53.9773 53.328 53.4835 53.4063 52.9728 53.4063Z" fill="#F6F5F5"/>
<path d="M62.6173 48.7686C61.8886 48.8027 61.2757 48.8674 60.7786 48.9627C60.2815 49.0512 59.8831 49.167 59.5834 49.31C59.2838 49.453 59.0693 49.6199 58.9399 49.8106C58.8105 50.0012 58.7458 50.209 58.7458 50.4337C58.7458 50.8763 58.8752 51.193 59.134 51.3837C59.3995 51.5744 59.7435 51.6697 60.1657 51.6697C60.6833 51.6697 61.1293 51.5778 61.5039 51.3939C61.8852 51.2032 62.2564 50.9172 62.6173 50.5358V48.7686ZM56.8355 44.2229C58.0409 43.1196 59.4915 42.568 61.1872 42.568C61.8001 42.568 62.3483 42.6702 62.8318 42.8745C63.3154 43.072 63.724 43.3512 64.0577 43.7121C64.3914 44.0662 64.6433 44.4919 64.8136 44.989C64.9907 45.4861 65.0792 46.0309 65.0792 46.6234V53.2429H63.9351C63.6967 53.2429 63.5129 53.2088 63.3835 53.1407C63.2541 53.0658 63.1519 52.9194 63.077 52.7015L62.8523 51.9455C62.5867 52.1839 62.3279 52.395 62.0759 52.5789C61.8239 52.7559 61.5618 52.9058 61.2894 53.0283C61.0169 53.1509 60.7241 53.2429 60.4108 53.3042C60.1044 53.3723 59.7639 53.4063 59.3893 53.4063C58.9467 53.4063 58.5381 53.3484 58.1635 53.2326C57.789 53.1101 57.4655 52.9296 57.1931 52.6912C56.9207 52.4529 56.7095 52.1567 56.5597 51.8025C56.4099 51.4484 56.335 51.0364 56.335 50.5665C56.335 50.3009 56.3793 50.0387 56.4678 49.7799C56.5563 49.5143 56.6993 49.2624 56.8968 49.024C57.1011 48.7856 57.3633 48.5609 57.6834 48.3498C58.0035 48.1387 58.3951 47.9548 58.8581 47.7982C59.328 47.6415 59.8729 47.5156 60.4926 47.4202C61.1123 47.3181 61.8205 47.2568 62.6173 47.2363V46.6234C62.6173 45.922 62.4675 45.4044 62.1679 45.0707C61.8682 44.7302 61.4358 44.56 60.8705 44.56C60.4619 44.56 60.1214 44.6076 59.849 44.703C59.5834 44.7983 59.3485 44.9073 59.1442 45.0299C58.9399 45.1456 58.7526 45.2512 58.5823 45.3465C58.4189 45.4419 58.235 45.4895 58.0307 45.4895C57.8536 45.4895 57.7038 45.4453 57.5812 45.3567C57.4587 45.2614 57.3599 45.1524 57.285 45.0299L56.8355 44.2229Z" fill="#F6F5F5"/>
<path d="M70.8094 53.4063C69.8969 53.4063 69.1954 53.1509 68.7051 52.6402C68.2216 52.1226 67.9798 51.4109 67.9798 50.5052V44.6519H66.9072C66.771 44.6519 66.6552 44.6076 66.5599 44.5191C66.4646 44.4306 66.4169 44.2978 66.4169 44.1207V43.1196L68.1024 42.8438L68.6336 39.9836C68.6676 39.8474 68.7323 39.7418 68.8277 39.6669C68.923 39.592 69.0456 39.5545 69.1954 39.5545H70.503V42.854H73.3019V44.6519H70.503V50.3315C70.503 50.6584 70.5813 50.9138 70.7379 51.0977C70.9014 51.2816 71.1227 51.3735 71.4019 51.3735C71.5585 51.3735 71.6879 51.3565 71.7901 51.3224C71.899 51.2816 71.991 51.2407 72.0659 51.1998C72.1476 51.159 72.2191 51.1215 72.2804 51.0875C72.3417 51.0466 72.403 51.0262 72.4643 51.0262C72.5392 51.0262 72.6005 51.0466 72.6482 51.0875C72.6958 51.1215 72.7469 51.176 72.8014 51.2509L73.5573 52.4767C73.1896 52.7832 72.7673 53.0147 72.2906 53.1714C71.8139 53.328 71.3202 53.4063 70.8094 53.4063Z" fill="#F6F5F5"/>
<path d="M81.5898 46.7971C81.5898 46.4702 81.5421 46.1637 81.4468 45.8777C81.3582 45.5849 81.222 45.3295 81.0382 45.1116C80.8543 44.8937 80.6193 44.7234 80.3333 44.6008C80.0541 44.4714 79.7272 44.4067 79.3527 44.4067C78.624 44.4067 78.0485 44.6144 77.6263 45.0299C77.2109 45.4453 76.9453 46.0344 76.8295 46.7971H81.5898ZM76.7784 48.3191C76.8193 48.8571 76.9146 49.3236 77.0645 49.7186C77.2143 50.1068 77.4118 50.4303 77.6569 50.6891C77.9021 50.941 78.1915 51.1317 78.5252 51.2611C78.8657 51.3837 79.2403 51.445 79.6489 51.445C80.0575 51.445 80.4082 51.3973 80.7011 51.302C81.0007 51.2066 81.2595 51.1011 81.4774 50.9853C81.7022 50.8695 81.8962 50.764 82.0597 50.6686C82.2299 50.5733 82.3934 50.5256 82.55 50.5256C82.7611 50.5256 82.9178 50.6039 83.0199 50.7606L83.7452 51.6799C83.466 52.0068 83.1527 52.2826 82.8054 52.5074C82.4581 52.7253 82.0937 52.9024 81.7124 53.0386C81.3378 53.168 80.953 53.2599 80.5581 53.3144C80.1699 53.3689 79.7919 53.3961 79.4242 53.3961C78.6955 53.3961 78.0179 53.2769 77.3913 53.0386C76.7648 52.7934 76.22 52.4359 75.7569 51.966C75.2938 51.4893 74.9295 50.9036 74.6639 50.209C74.3983 49.5075 74.2655 48.6971 74.2655 47.7777C74.2655 47.0627 74.3813 46.3919 74.6128 45.7654C74.8444 45.132 75.1747 44.5838 75.6037 44.1207C76.0395 43.6508 76.5673 43.2797 77.187 43.0073C77.8136 42.7349 78.5184 42.5986 79.3016 42.5986C79.9622 42.5986 80.5717 42.7042 81.1301 42.9153C81.6885 43.1264 82.1686 43.4363 82.5704 43.8449C82.9722 44.2467 83.2855 44.7438 83.5102 45.3363C83.7418 45.922 83.8576 46.5928 83.8576 47.3487C83.8576 47.7301 83.8167 47.9889 83.735 48.1251C83.6533 48.2545 83.4966 48.3191 83.2651 48.3191H76.7784Z" fill="#F6F5F5"/>
<path d="M88.6482 40.6578V44.7541H93.817V46.8686H88.6482V51.0466H95.2063V53.2429H85.8901V38.4717H95.2063V40.6578H88.6482Z" fill="#F6F5F5"/>
<path d="M99.757 38.0631V53.2429H97.2339V38.0631H99.757Z" fill="#F6F5F5"/>
<path d="M104.886 42.7621V53.2429H102.353V42.7621H104.886ZM105.233 39.7078C105.233 39.9257 105.189 40.13 105.1 40.3207C105.012 40.5113 104.893 40.6782 104.743 40.8212C104.6 40.9642 104.43 41.08 104.232 41.1685C104.035 41.2502 103.824 41.2911 103.599 41.2911C103.381 41.2911 103.173 41.2502 102.976 41.1685C102.785 41.08 102.618 40.9642 102.475 40.8212C102.332 40.6782 102.216 40.5113 102.128 40.3207C102.046 40.13 102.005 39.9257 102.005 39.7078C102.005 39.483 102.046 39.2719 102.128 39.0744C102.216 38.8769 102.332 38.7067 102.475 38.5637C102.618 38.4206 102.785 38.3083 102.976 38.2266C103.173 38.138 103.381 38.0938 103.599 38.0938C103.824 38.0938 104.035 38.138 104.232 38.2266C104.43 38.3083 104.6 38.4206 104.743 38.5637C104.893 38.7067 105.012 38.8769 105.1 39.0744C105.189 39.2719 105.233 39.483 105.233 39.7078Z" fill="#F6F5F5"/>
<path d="M110.952 53.4063C110.039 53.4063 109.338 53.1509 108.848 52.6402C108.364 52.1226 108.122 51.4109 108.122 50.5052V44.6519H107.05C106.913 44.6519 106.798 44.6076 106.702 44.5191C106.607 44.4306 106.559 44.2978 106.559 44.1207V43.1196L108.245 42.8438L108.776 39.9836C108.81 39.8474 108.875 39.7418 108.97 39.6669C109.065 39.592 109.188 39.5545 109.338 39.5545H110.645V42.854H113.444V44.6519H110.645V50.3315C110.645 50.6584 110.724 50.9138 110.88 51.0977C111.044 51.2816 111.265 51.3735 111.544 51.3735C111.701 51.3735 111.83 51.3565 111.933 51.3224C112.041 51.2816 112.133 51.2407 112.208 51.1998C112.29 51.159 112.362 51.1215 112.423 51.0875C112.484 51.0466 112.545 51.0262 112.607 51.0262C112.682 51.0262 112.743 51.0466 112.791 51.0875C112.838 51.1215 112.889 51.176 112.944 51.2509L113.7 52.4767C113.332 52.7832 112.91 53.0147 112.433 53.1714C111.956 53.328 111.463 53.4063 110.952 53.4063Z" fill="#F6F5F5"/>
<path d="M121.732 46.7971C121.732 46.4702 121.685 46.1637 121.589 45.8777C121.501 45.5849 121.364 45.3295 121.181 45.1116C120.997 44.8937 120.762 44.7234 120.476 44.6008C120.197 44.4714 119.87 44.4067 119.495 44.4067C118.766 44.4067 118.191 44.6144 117.769 45.0299C117.353 45.4453 117.088 46.0344 116.972 46.7971H121.732ZM116.921 48.3191C116.962 48.8571 117.057 49.3236 117.207 49.7186C117.357 50.1068 117.554 50.4303 117.799 50.6891C118.045 50.941 118.334 51.1317 118.668 51.2611C119.008 51.3837 119.383 51.445 119.791 51.445C120.2 51.445 120.551 51.3973 120.844 51.302C121.143 51.2066 121.402 51.1011 121.62 50.9853C121.845 50.8695 122.039 50.764 122.202 50.6686C122.372 50.5733 122.536 50.5256 122.692 50.5256C122.904 50.5256 123.06 50.6039 123.162 50.7606L123.888 51.6799C123.608 52.0068 123.295 52.2826 122.948 52.5074C122.601 52.7253 122.236 52.9024 121.855 53.0386C121.48 53.168 121.095 53.2599 120.701 53.3144C120.312 53.3689 119.934 53.3961 119.567 53.3961C118.838 53.3961 118.16 53.2769 117.534 53.0386C116.907 52.7934 116.362 52.4359 115.899 51.966C115.436 51.4893 115.072 50.9036 114.806 50.209C114.541 49.5075 114.408 48.6971 114.408 47.7777C114.408 47.0627 114.524 46.3919 114.755 45.7654C114.987 45.132 115.317 44.5838 115.746 44.1207C116.182 43.6508 116.71 43.2797 117.329 43.0073C117.956 42.7349 118.661 42.5986 119.444 42.5986C120.105 42.5986 120.714 42.7042 121.273 42.9153C121.831 43.1264 122.311 43.4363 122.713 43.8449C123.115 44.2467 123.428 44.7438 123.653 45.3363C123.884 45.922 124 46.5928 124 47.3487C124 47.7301 123.959 47.9889 123.877 48.1251C123.796 48.2545 123.639 48.3191 123.408 48.3191H116.921Z" fill="#F6F5F5"/>
<path fill-rule="evenodd" clip-rule="evenodd" d="M31.7289 6.82288L58.5137 34.658L57.0415 36.0746L31.7289 9.76936L6.70173 35.778V59.372H57.7776V61.415H4.65869V34.9547L31.7289 6.82288Z" fill="white"/>
<path fill-rule="evenodd" clip-rule="evenodd" d="M99.1491 61.415H5.16943V59.3719H99.1491V61.415Z" fill="white"/>
</svg>
