<svg width="193" height="96" viewBox="0 0 193 96" fill="none" xmlns="http://www.w3.org/2000/svg">
<path fill-rule="evenodd" clip-rule="evenodd" d="M49.3847 0L98.7694 49.3847L95.3966 52.7575L49.3847 6.74555L3.37278 52.7575L0 49.3847L49.3847 0Z" fill="url(#paint0_linear_20_623)"/>
<path d="M49.8773 63.2818V69.6575H57.9224V72.9487H49.8773V79.4515H60.0848V82.8699H45.5845V59.8793H60.0848V63.2818H49.8773Z" fill="#B97745"/>
<path d="M72.9906 69.737C72.8846 69.9066 72.7733 70.0285 72.6567 70.1027C72.5401 70.1663 72.3917 70.1981 72.2115 70.1981C72.0207 70.1981 71.8141 70.1451 71.5915 70.0391C71.3795 69.9331 71.1304 69.8165 70.8442 69.6893C70.558 69.5515 70.2294 69.4296 69.8584 69.3236C69.498 69.2176 69.0688 69.1646 68.5706 69.1646C67.7968 69.1646 67.1873 69.3289 66.7421 69.6575C66.3076 69.9861 66.0903 70.4153 66.0903 70.9453C66.0903 71.2951 66.2016 71.5919 66.4242 71.8357C66.6573 72.0689 66.9594 72.2756 67.3304 72.4558C67.712 72.636 68.1413 72.8003 68.6183 72.9487C69.0953 73.0865 69.5775 73.2401 70.0651 73.4097C70.5633 73.5793 71.0509 73.7754 71.5279 73.998C72.0048 74.21 72.4288 74.4856 72.7998 74.8248C73.1814 75.1534 73.4835 75.5509 73.7061 76.0172C73.9393 76.4836 74.0559 77.0454 74.0559 77.7026C74.0559 78.487 73.9128 79.213 73.6266 79.8808C73.351 80.538 72.9376 81.1104 72.3864 81.5979C71.8353 82.0749 71.1516 82.4512 70.3354 82.7268C69.5298 82.9918 68.5971 83.1243 67.5371 83.1243C66.9753 83.1243 66.4242 83.0713 65.8836 82.9653C65.3536 82.8699 64.8395 82.7321 64.3413 82.5519C63.8537 82.3717 63.398 82.1597 62.974 81.9159C62.5606 81.6721 62.1949 81.4072 61.8769 81.121L62.7832 79.6264C62.8998 79.4462 63.0376 79.3084 63.1966 79.213C63.3556 79.1176 63.557 79.0699 63.8007 79.0699C64.0445 79.0699 64.2724 79.1388 64.4844 79.2766C64.707 79.4144 64.9614 79.5628 65.2476 79.7218C65.5338 79.8808 65.8677 80.0292 66.2493 80.167C66.6414 80.3048 67.1343 80.3737 67.7279 80.3737C68.1943 80.3737 68.5918 80.3207 68.9204 80.2147C69.2595 80.0981 69.5351 79.9497 69.7471 79.7695C69.9697 79.5893 70.1287 79.3826 70.2241 79.1494C70.3301 78.9056 70.3831 78.6566 70.3831 78.4022C70.3831 78.0206 70.2665 77.7079 70.0333 77.4641C69.8107 77.2203 69.5086 77.0083 69.1271 76.8281C68.7561 76.6479 68.3268 76.4889 67.8392 76.3511C67.3622 76.2027 66.8693 76.0437 66.3606 75.8742C65.8624 75.7046 65.3695 75.5085 64.8819 75.2859C64.4049 75.0527 63.9756 74.7612 63.5941 74.4114C63.2231 74.0616 62.921 73.6323 62.6878 73.1235C62.4652 72.6148 62.3539 72 62.3539 71.2792C62.3539 70.6114 62.4864 69.9755 62.7514 69.3713C63.0164 68.7671 63.4033 68.2424 63.912 67.7972C64.4314 67.3415 65.0727 66.9811 65.8359 66.7161C66.6096 66.4405 67.5 66.3027 68.507 66.3027C69.6305 66.3027 70.6534 66.4882 71.5756 66.8592C72.4977 67.2302 73.2662 67.7177 73.881 68.3219L72.9906 69.737Z" fill="#B97745"/>
<path d="M82.4493 83.1243C81.0289 83.1243 79.9372 82.7268 79.174 81.9318C78.4214 81.1263 78.0451 80.0186 78.0451 78.6089V69.4985H76.3757C76.1637 69.4985 75.9835 69.4296 75.8351 69.2918C75.6867 69.154 75.6125 68.9473 75.6125 68.6717V67.1136L78.2359 66.6843L79.0627 62.2324C79.1157 62.0204 79.2164 61.8562 79.3648 61.7396C79.5132 61.623 79.704 61.5647 79.9372 61.5647H81.9723V66.7002H86.3287V69.4985H81.9723V78.3386C81.9723 78.8473 82.0942 79.2448 82.338 79.531C82.5924 79.8172 82.9369 79.9603 83.3714 79.9603C83.6152 79.9603 83.8166 79.9338 83.9756 79.8808C84.1452 79.8172 84.2883 79.7536 84.4049 79.69C84.5321 79.6264 84.6434 79.5681 84.7388 79.5151C84.8342 79.4515 84.9296 79.4197 85.025 79.4197C85.1416 79.4197 85.237 79.4515 85.3112 79.5151C85.3854 79.5681 85.4649 79.6529 85.5497 79.7695L86.7262 81.6774C86.1538 82.1544 85.4967 82.5148 84.7547 82.7586C84.0127 83.0024 83.2443 83.1243 82.4493 83.1243Z" fill="#B97745"/>
<path d="M97.4606 75.9059C96.3264 75.9589 95.3725 76.0596 94.5987 76.208C93.8249 76.3458 93.2048 76.526 92.7384 76.7486C92.2721 76.9712 91.9382 77.2309 91.7368 77.5277C91.5354 77.8245 91.4347 78.1478 91.4347 78.4976C91.4347 79.1865 91.6361 79.6794 92.0389 79.9762C92.4523 80.273 92.9875 80.4214 93.6447 80.4214C94.4503 80.4214 95.1446 80.2783 95.7275 79.9921C96.3211 79.6953 96.8988 79.2501 97.4606 78.6566V75.9059ZM88.4615 68.8307C90.3376 67.1136 92.5954 66.255 95.2347 66.255C96.1886 66.255 97.0419 66.414 97.7945 66.732C98.547 67.0394 99.183 67.474 99.7024 68.0357C100.222 68.5869 100.614 69.2494 100.879 70.0232C101.155 70.7969 101.292 71.6449 101.292 72.5671V82.8699H99.5116C99.1406 82.8699 98.8544 82.8169 98.653 82.7109C98.4516 82.5943 98.2926 82.3664 98.1761 82.0272L97.8263 80.8507C97.4129 81.2217 97.0101 81.5502 96.6179 81.8364C96.2257 82.112 95.8176 82.3452 95.3937 82.536C94.9697 82.7268 94.5139 82.8699 94.0263 82.9653C93.5493 83.0713 93.0193 83.1243 92.4364 83.1243C91.7474 83.1243 91.1114 83.0342 90.5284 82.854C89.9455 82.6632 89.442 82.3823 89.018 82.0113C88.594 81.6403 88.2654 81.1793 88.0322 80.6281C87.799 80.0769 87.6824 79.4356 87.6824 78.7042C87.6824 78.2909 87.7513 77.8828 87.8891 77.48C88.0269 77.0666 88.2495 76.6744 88.5569 76.3034C88.8749 75.9324 89.283 75.5827 89.7812 75.2541C90.2793 74.9255 90.8888 74.6393 91.6096 74.3955C92.341 74.1517 93.1889 73.9556 94.1535 73.8072C95.1181 73.6482 96.2204 73.5528 97.4606 73.521V72.5671C97.4606 71.4753 97.2274 70.6697 96.761 70.1504C96.2946 69.6204 95.6215 69.3554 94.7418 69.3554C94.1058 69.3554 93.5758 69.4296 93.1518 69.578C92.7384 69.7264 92.3728 69.896 92.0548 70.0868C91.7368 70.267 91.4453 70.4312 91.1803 70.5796C90.9259 70.728 90.6397 70.8022 90.3217 70.8022C90.0461 70.8022 89.813 70.7333 89.6222 70.5955C89.4314 70.4471 89.2777 70.2776 89.1611 70.0868L88.4615 68.8307Z" fill="#B97745"/>
<path d="M110.211 83.1243C108.791 83.1243 107.699 82.7268 106.936 81.9318C106.183 81.1263 105.807 80.0186 105.807 78.6089V69.4985H104.138C103.926 69.4985 103.745 69.4296 103.597 69.2918C103.449 69.154 103.374 68.9473 103.374 68.6717V67.1136L105.998 66.6843L106.825 62.2324C106.878 62.0204 106.978 61.8562 107.127 61.7396C107.275 61.623 107.466 61.5647 107.699 61.5647H109.734V66.7002H114.091V69.4985H109.734V78.3386C109.734 78.8473 109.856 79.2448 110.1 79.531C110.354 79.8172 110.699 79.9603 111.133 79.9603C111.377 79.9603 111.579 79.9338 111.738 79.8808C111.907 79.8172 112.05 79.7536 112.167 79.69C112.294 79.6264 112.405 79.5681 112.501 79.5151C112.596 79.4515 112.691 79.4197 112.787 79.4197C112.903 79.4197 112.999 79.4515 113.073 79.5151C113.147 79.5681 113.227 79.6529 113.312 79.7695L114.488 81.6774C113.916 82.1544 113.259 82.5148 112.517 82.7586C111.775 83.0024 111.006 83.1243 110.211 83.1243Z" fill="#B97745"/>
<path d="M126.99 72.8374C126.99 72.3286 126.916 71.8516 126.768 71.4064C126.63 70.9506 126.418 70.5531 126.132 70.214C125.846 69.8748 125.48 69.6098 125.035 69.419C124.6 69.2176 124.091 69.1169 123.508 69.1169C122.374 69.1169 121.478 69.4402 120.821 70.0868C120.175 70.7333 119.761 71.6502 119.581 72.8374H126.99ZM119.502 75.2064C119.565 76.0437 119.714 76.7698 119.947 77.3846C120.18 77.9888 120.487 78.4923 120.869 78.895C121.251 79.2872 121.701 79.584 122.22 79.7854C122.75 79.9762 123.333 80.0716 123.969 80.0716C124.605 80.0716 125.151 79.9974 125.607 79.849C126.073 79.7006 126.476 79.5363 126.815 79.3561C127.165 79.1759 127.467 79.0116 127.722 78.8632C127.987 78.7148 128.241 78.6407 128.485 78.6407C128.813 78.6407 129.057 78.7625 129.216 79.0063L130.345 80.4373C129.91 80.9461 129.423 81.3754 128.882 81.7251C128.342 82.0643 127.775 82.3399 127.181 82.5519C126.598 82.7533 125.999 82.8964 125.384 82.9812C124.78 83.066 124.192 83.1084 123.62 83.1084C122.485 83.1084 121.431 82.9229 120.456 82.5519C119.48 82.1703 118.632 81.6138 117.912 80.8825C117.191 80.1405 116.624 79.2289 116.21 78.1478C115.797 77.056 115.59 75.7947 115.59 74.3637C115.59 73.2507 115.771 72.2067 116.131 71.2315C116.491 70.2458 117.005 69.3925 117.673 68.6717C118.352 67.9403 119.173 67.3627 120.138 66.9387C121.113 66.5147 122.21 66.3027 123.429 66.3027C124.457 66.3027 125.406 66.467 126.275 66.7956C127.144 67.1242 127.891 67.6064 128.517 68.2424C129.142 68.8678 129.63 69.6416 129.979 70.5637C130.34 71.4753 130.52 72.5194 130.52 73.6959C130.52 74.2895 130.456 74.6923 130.329 74.9043C130.202 75.1057 129.958 75.2064 129.598 75.2064H119.502Z" fill="#B97745"/>
<path d="M137.976 63.2818V69.6575H146.021V72.9487H137.976V79.4515H148.184V82.8699H133.683V59.8793H148.184V63.2818H137.976Z" fill="#B97745"/>
<path d="M155.267 59.2433V82.8699H151.34V59.2433H155.267Z" fill="#B97745"/>
<path d="M163.25 66.5571V82.8699H159.307V66.5571H163.25ZM163.79 61.8032C163.79 62.1423 163.721 62.4603 163.584 62.7571C163.446 63.0539 163.26 63.3136 163.027 63.5362C162.804 63.7588 162.54 63.939 162.232 64.0768C161.925 64.204 161.596 64.2676 161.246 64.2676C160.907 64.2676 160.584 64.204 160.276 64.0768C159.98 63.939 159.72 63.7588 159.497 63.5362C159.275 63.3136 159.095 63.0539 158.957 62.7571C158.83 62.4603 158.766 62.1423 158.766 61.8032C158.766 61.4534 158.83 61.1248 158.957 60.8174C159.095 60.51 159.275 60.245 159.497 60.0224C159.72 59.7998 159.98 59.6249 160.276 59.4977C160.584 59.3599 160.907 59.291 161.246 59.291C161.596 59.291 161.925 59.3599 162.232 59.4977C162.54 59.6249 162.804 59.7998 163.027 60.0224C163.26 60.245 163.446 60.51 163.584 60.8174C163.721 61.1248 163.79 61.4534 163.79 61.8032Z" fill="#B97745"/>
<path d="M172.691 83.1243C171.271 83.1243 170.179 82.7268 169.416 81.9318C168.663 81.1263 168.287 80.0186 168.287 78.6089V69.4985H166.617C166.405 69.4985 166.225 69.4296 166.077 69.2918C165.928 69.154 165.854 68.9473 165.854 68.6717V67.1136L168.478 66.6843L169.304 62.2324C169.357 62.0204 169.458 61.8562 169.606 61.7396C169.755 61.623 169.946 61.5647 170.179 61.5647H172.214V66.7002H176.57V69.4985H172.214V78.3386C172.214 78.8473 172.336 79.2448 172.58 79.531C172.834 79.8172 173.179 79.9603 173.613 79.9603C173.857 79.9603 174.058 79.9338 174.217 79.8808C174.387 79.8172 174.53 79.7536 174.647 79.69C174.774 79.6264 174.885 79.5681 174.98 79.5151C175.076 79.4515 175.171 79.4197 175.267 79.4197C175.383 79.4197 175.479 79.4515 175.553 79.5151C175.627 79.5681 175.707 79.6529 175.791 79.7695L176.968 81.6774C176.396 82.1544 175.738 82.5148 174.996 82.7586C174.254 83.0024 173.486 83.1243 172.691 83.1243Z" fill="#B97745"/>
<path d="M189.47 72.8374C189.47 72.3286 189.396 71.8516 189.247 71.4064C189.11 70.9506 188.898 70.5531 188.612 70.214C188.325 69.8748 187.96 69.6098 187.514 69.419C187.08 69.2176 186.571 69.1169 185.988 69.1169C184.854 69.1169 183.958 69.4402 183.301 70.0868C182.655 70.7333 182.241 71.6502 182.061 72.8374H189.47ZM181.981 75.2064C182.045 76.0437 182.193 76.7698 182.427 77.3846C182.66 77.9888 182.967 78.4923 183.349 78.895C183.73 79.2872 184.181 79.584 184.7 79.7854C185.23 79.9762 185.813 80.0716 186.449 80.0716C187.085 80.0716 187.631 79.9974 188.087 79.849C188.553 79.7006 188.956 79.5363 189.295 79.3561C189.645 79.1759 189.947 79.0116 190.201 78.8632C190.466 78.7148 190.721 78.6407 190.965 78.6407C191.293 78.6407 191.537 78.7625 191.696 79.0063L192.825 80.4373C192.39 80.9461 191.903 81.3754 191.362 81.7251C190.822 82.0643 190.254 82.3399 189.661 82.5519C189.078 82.7533 188.479 82.8964 187.864 82.9812C187.26 83.066 186.672 83.1084 186.099 83.1084C184.965 83.1084 183.911 82.9229 182.935 82.5519C181.96 82.1703 181.112 81.6138 180.392 80.8825C179.671 80.1405 179.104 79.2289 178.69 78.1478C178.277 77.056 178.07 75.7947 178.07 74.3637C178.07 73.2507 178.25 72.2067 178.611 71.2315C178.971 70.2458 179.485 69.3925 180.153 68.6717C180.831 67.9403 181.653 67.3627 182.617 66.9387C183.593 66.5147 184.69 66.3027 185.909 66.3027C186.937 66.3027 187.885 66.467 188.755 66.7956C189.624 67.1242 190.371 67.6064 190.996 68.2424C191.622 68.8678 192.109 69.6416 192.459 70.5637C192.82 71.4753 193 72.5194 193 73.6959C193 74.2895 192.936 74.6923 192.809 74.9043C192.682 75.1057 192.438 75.2064 192.078 75.2064H181.981Z" fill="#B97745"/>
<path fill-rule="evenodd" clip-rule="evenodd" d="M49.3845 10.6194L91.0737 53.9435L88.7823 56.1484L49.3845 15.2055L10.4309 55.6867V92.4096H89.928V95.5895H7.25098V54.4052L49.3845 10.6194Z" fill="url(#paint1_linear_20_623)"/>
<path fill-rule="evenodd" clip-rule="evenodd" d="M154.321 95.5895H8.0459V92.4096H154.321V95.5895Z" fill="url(#paint2_linear_20_623)"/>
<defs>
<linearGradient id="paint0_linear_20_623" x1="49.3847" y1="3.37278" x2="115.367" y2="3.37278" gradientUnits="userSpaceOnUse">
<stop stop-color="#BC753F"/>
<stop offset="0.85" stop-color="#F4ECE6" stop-opacity="0"/>
</linearGradient>
<linearGradient id="paint1_linear_20_623" x1="8.84092" y1="93.9996" x2="91.5744" y2="93.9996" gradientUnits="userSpaceOnUse">
<stop stop-color="#AB6733"/>
<stop offset="0.375" stop-color="#B56F3A" stop-opacity="0.416667"/>
<stop offset="1" stop-color="#BC753F" stop-opacity="0"/>
</linearGradient>
<linearGradient id="paint2_linear_20_623" x1="8.0459" y1="95.5895" x2="157.291" y2="95.5896" gradientUnits="userSpaceOnUse">
<stop stop-color="#AB6733"/>
<stop offset="0.375" stop-color="#B56F3A" stop-opacity="0.416667"/>
<stop offset="1" stop-color="#BC753F" stop-opacity="0"/>
</linearGradient>
</defs>
</svg>
